<svg width="24" height="24" viewBox="0 0 24 24" fill="none" xmlns="http://www.w3.org/2000/svg">
<path d="M18.3659 5.625C16.6725 3.9375 14.4146 3 12.0314 3C7.07665 3 3.06272 7 3.06272 11.9375C3.06272 13.5 3.50174 15.0625 4.25436 16.375L3 21L7.76655 19.75C9.08362 20.4375 10.5261 20.8125 12.0314 20.8125C16.9861 20.8125 21 16.8125 21 11.875C20.9373 9.5625 20.0592 7.3125 18.3659 5.625ZM16.3589 15.125C16.1707 15.625 15.2927 16.125 14.8537 16.1875C14.4773 16.25 13.9756 16.25 13.4739 16.125C13.1603 16 12.7213 15.875 12.2195 15.625C9.96167 14.6875 8.51917 12.4375 8.39373 12.25C8.26829 12.125 7.45296 11.0625 7.45296 9.9375C7.45296 8.8125 8.01742 8.3125 8.20557 8.0625C8.39373 7.8125 8.6446 7.8125 8.83275 7.8125C8.95819 7.8125 9.14634 7.8125 9.27177 7.8125C9.39721 7.8125 9.58536 7.75 9.77352 8.1875C9.96167 8.625 10.4007 9.75 10.4634 9.8125C10.5261 9.9375 10.5261 10.0625 10.4634 10.1875C10.4007 10.3125 10.338 10.4375 10.2125 10.5625C10.0871 10.6875 9.96167 10.875 9.89895 10.9375C9.77352 11.0625 9.64808 11.1875 9.77352 11.375C9.89895 11.625 10.338 12.3125 11.0279 12.9375C11.9059 13.6875 12.5958 13.9375 12.8467 14.0625C13.0976 14.1875 13.223 14.125 13.3484 14C13.4739 13.875 13.9129 13.375 14.0383 13.125C14.1638 12.875 14.3519 12.9375 14.5401 13C14.7282 13.0625 15.8571 13.625 16.0453 13.75C16.2962 13.875 16.4216 13.9375 16.4843 14C16.547 14.1875 16.547 14.625 16.3589 15.125Z" fill="#222428"/>
</svg>
