<svg width="24" height="24" viewBox="0 0 24 24" fill="none" xmlns="http://www.w3.org/2000/svg">
<path d="M3.31563 11.5367L7.45392 13.0798L9.06714 18.2701C9.13728 18.6208 9.55812 18.691 9.83868 18.4806L12.1533 16.5868C12.3637 16.3763 12.7144 16.3763 12.995 16.5868L17.1333 19.6028C17.4138 19.8132 17.8347 19.6729 17.9048 19.3222L20.991 4.59279C21.0611 4.24209 20.7104 3.89139 20.3597 4.03167L3.31563 10.6249C2.89479 10.7651 2.89479 11.3964 3.31563 11.5367ZM8.85672 12.3082L16.993 7.32826C17.1333 7.25812 17.2735 7.46854 17.1333 7.53868L10.4699 13.7812C10.2595 13.9916 10.0491 14.2721 10.0491 14.6228L9.83868 16.3062C9.83868 16.5166 9.48798 16.5868 9.41784 16.3062L8.57615 13.22C8.36573 12.8693 8.50602 12.4485 8.85672 12.3082Z" fill="#222428"/>
</svg>
