<svg width="24" height="24" viewBox="0 0 24 24" fill="none" xmlns="http://www.w3.org/2000/svg">
<circle cx="12" cy="12" r="12" fill="white"/>
<path d="M5.61032 12.2246L8.36918 13.2534L9.44466 16.7136C9.49142 16.9474 9.77198 16.9942 9.95902 16.8539L11.5021 15.5914C11.6424 15.4511 11.8762 15.4511 12.0632 15.5914L14.8221 17.6021C15.0091 17.7423 15.2897 17.6488 15.3364 17.415L17.3939 7.59539C17.4406 7.36159 17.2068 7.12779 16.973 7.22131L5.61032 11.6168C5.32976 11.7103 5.32976 12.1311 5.61032 12.2246ZM9.30439 12.739L14.7286 9.41903C14.8221 9.37227 14.9156 9.51256 14.8221 9.55932L10.3799 13.721C10.2396 13.8612 10.0993 14.0483 10.0993 14.2821L9.95902 15.4043C9.95902 15.5446 9.72522 15.5914 9.67846 15.4043L9.11733 13.3469C8.97705 13.1131 9.07059 12.8325 9.30439 12.739Z" fill="#222428"/>
</svg>
